<svg id="Layer_1" data-name="Layer 1" xmlns="http://www.w3.org/2000/svg" width="612" height="792" viewBox="0 0 612 792">
  <defs>
    <style>
      .cls-1 {
        fill: #fff;
      }

      .cls-1, .cls-2, .cls-4, .cls-5 {
        stroke: #231f20;
      }

      .cls-1, .cls-2, .cls-3, .cls-4, .cls-5 {
        stroke-miterlimit: 10;
      }

      .cls-2, .cls-3, .cls-4, .cls-5 {
        fill: none;
      }

      .cls-3 {
        stroke: #458c93;
      }

      .cls-4 {
        stroke-dasharray: 12.22 12.22;
      }

      .cls-5 {
        stroke-dasharray: 12.26 12.26;
      }
    </style>
  </defs>
  <title>heddle_parts</title>
  <rect class="cls-1" x="50.5" y="124" width="18" height="216"/>
  <rect class="cls-1" x="68.5" y="124" width="18" height="216"/>
  <rect class="cls-1" x="86.5" y="124" width="18" height="216"/>
  <rect class="cls-1" x="104.5" y="124" width="18" height="216"/>
  <rect class="cls-1" x="122.5" y="124" width="18" height="216"/>
  <rect class="cls-1" x="140.5" y="124" width="18" height="216"/>
  <rect class="cls-1" x="158.5" y="124" width="18" height="216"/>
  <rect class="cls-1" x="176.5" y="124" width="18" height="216"/>
  <rect class="cls-1" x="194.5" y="124" width="18" height="216"/>
  <rect class="cls-1" x="212.5" y="124" width="18" height="216"/>
  <rect class="cls-1" x="230.5" y="124" width="18" height="216"/>
  <rect class="cls-1" x="248.5" y="124" width="18" height="216"/>
  <rect class="cls-1" x="266.5" y="124" width="18" height="216"/>
  <rect class="cls-1" x="284.5" y="124" width="18" height="216"/>
  <rect class="cls-1" x="302.5" y="124" width="18" height="216"/>
  <rect class="cls-1" x="320.5" y="124" width="18" height="216"/>
  <rect class="cls-1" x="338.5" y="124" width="18" height="216"/>
  <rect class="cls-1" x="356.5" y="124" width="18" height="216"/>
  <rect class="cls-1" x="374.5" y="124" width="18" height="216"/>
  <rect class="cls-1" x="392.5" y="124" width="18" height="216"/>
  <rect class="cls-2" x="32.5" y="106" width="396" height="252"/>
  <rect class="cls-2" x="32.5" y="34" width="396" height="72"/>
  <circle class="cls-1" cx="32.5" cy="70" r="18"/>
  <circle class="cls-1" cx="89.07" cy="70" r="18"/>
  <circle class="cls-1" cx="145.64" cy="70" r="18"/>
  <circle class="cls-1" cx="202.21" cy="70" r="18"/>
  <circle class="cls-1" cx="258.79" cy="70" r="18"/>
  <circle class="cls-1" cx="315.36" cy="70" r="18"/>
  <circle class="cls-1" cx="371.93" cy="70" r="18"/>
  <circle class="cls-1" cx="428.5" cy="70" r="18"/>
  <rect class="cls-1" x="71.07" y="7.5" width="36" height="62.5"/>
  <rect class="cls-3" x="63" y="522" width="18" height="216" rx="9" ry="9"/>
  <rect class="cls-3" x="99" y="522" width="18" height="216" rx="9" ry="9"/>
  <rect class="cls-2" x="225" y="522" width="18" height="216"/>
  <rect class="cls-2" x="243" y="522" width="18" height="216"/>
  <rect class="cls-2" x="261" y="522" width="18" height="216"/>
  <rect class="cls-2" x="279" y="522" width="18" height="216"/>
  <rect class="cls-2" x="297" y="522" width="18" height="216"/>
  <rect class="cls-2" x="315" y="522" width="18" height="216"/>
  <rect class="cls-2" x="333" y="522" width="18" height="216"/>
  <rect class="cls-2" x="351" y="522" width="18" height="216"/>
  <rect class="cls-2" x="369" y="522" width="18" height="216"/>
  <rect class="cls-2" x="387" y="522" width="18" height="216"/>
  <path class="cls-3" d="M63,450H35.64A8.64,8.64,0,0,0,27,458.64V747.36A8.64,8.64,0,0,0,35.64,756H414.36a8.64,8.64,0,0,0,8.64-8.64V458.64a8.64,8.64,0,0,0-8.64-8.64H387"/>
  <circle class="cls-2" cx="252" cy="486" r="18"/>
  <circle class="cls-2" cx="306" cy="486" r="18"/>
  <circle class="cls-2" cx="360" cy="486" r="18"/>
  <path class="cls-3" d="M63,450h0a9,9,0,0,1,9,9v27a18,18,0,0,0,36,0V459a9,9,0,0,1,9-9h0"/>
  <path class="cls-3" d="M156,486a12,12,0,1,1-12-12A12,12,0,0,1,156,486Zm-30-36h36"/>
  <ellipse class="cls-3" cx="54" cy="630" rx="4.5" ry="9"/>
  <ellipse class="cls-3" cx="90" cy="630" rx="4.5" ry="9"/>
  <rect class="cls-3" x="189" y="522" width="36" height="216" rx="9" ry="9"/>
  <rect class="cls-3" x="153" y="522" width="18" height="216" rx="9" ry="9"/>
  <circle class="cls-3" cx="144" cy="630" r="4.5"/>
  <circle class="cls-3" cx="126" cy="630" r="4.5"/>
  <circle class="cls-3" cx="180" cy="630" r="4.5"/>
  <g>
    <line class="cls-2" x1="63" y1="432" x2="63" y2="438"/>
    <line class="cls-4" x1="63" y1="450.22" x2="63" y2="761.89"/>
    <line class="cls-2" x1="63" y1="768" x2="63" y2="774"/>
  </g>
  <g>
    <line class="cls-2" x1="45" y1="432" x2="45" y2="438"/>
    <line class="cls-4" x1="45" y1="450.22" x2="45" y2="761.89"/>
    <line class="cls-2" x1="45" y1="768" x2="45" y2="774"/>
  </g>
  <g>
    <line class="cls-2" x1="450" y1="522" x2="444" y2="522"/>
    <line class="cls-5" x1="431.74" y1="522" x2="21.13" y2="522"/>
    <line class="cls-2" x1="15" y1="522" x2="9" y2="522"/>
  </g>
  <rect class="cls-3" x="45" y="522" width="18" height="216"/>
  <path class="cls-2" d="M216,450h0a6,6,0,0,0-6,6v30a12,12,0,0,1-24,0V456a6,6,0,0,0-6-6h0"/>
  <rect class="cls-2" x="45" y="450" width="18" height="72"/>
</svg>
